#!OML:ASF H:\Dans Jumps\Project 1\Capture day 1\Session 1\subject.ASF
:FULLY-SPECIFIED
:DEGREES
86
root 0.151961 17.1678 -15.3458 15.4515 -1.09389 -2.20148
lowerback 11.7902 -0.194545 0.591293
upperback 8.48488 -0.222336 1.70643
thorax 2.27317 -0.137087 1.46201
lowerneck -13.0403 0.773989 -0.729551
upperneck 23.4141 1.44365 -0.840411
head 9.54314 0.506081 0.00420138
rclavicle 8.84592e-015 -3.18055e-015
rhumerus -26.5874 -3.57756 -84.7599
rradius 36.686
rwrist 17.4051
rhand -20.2219 -26.1629
rfingers 7.12502
rthumb 6.12556 -56.0544
lclavicle 8.84592e-015 -3.18055e-015
lhumerus -26.4187 -9.03458 90.5358
lradius 33.0298
lwrist 23.974
lhand -30.9462 -7.671
lfingers 7.12502
lthumb -4.23114 22.2667
rfemur -37.1857 -2.96413 20.8093
rtibia 37.2255
rfoot -14.3019 0.378896
rtoes 10.9228
lfemur -36.9364 8.67119 -19.6008
ltibia 36.7971
lfoot -13.4376 3.51176
ltoes 4.14554
87
root 0.154569 17.1518 -15.3678 15.59 -1.08426 -2.19157
lowerback 11.9822 -0.197151 0.586205
upperback 8.53009 -0.223861 1.70561
thorax 2.21792 -0.138184 1.46516
lowerneck -13.1051 0.777046 -0.717039
upperneck 23.2052 1.44903 -0.864913
head 9.48224 0.508503 -0.00575113
rclavicle 1.78906e-015 1.39149e-015
rhumerus -26.5956 -3.64768 -84.649
rradius 36.6373
rwrist 17.3995
rhand -20.1874 -26.1762
rfingers 7.12502
rthumb 6.15885 -56.0667
lclavicle 1.78906e-015 1.39149e-015
lhumerus -26.4072 -8.92856 90.4186
lradius 32.831
lwrist 23.9466
lhand -31.0314 -7.71136
lfingers 7.12502
lthumb -4.31346 22.2247
rfemur -37.6212 -2.96222 20.8016
rtibia 37.5899
rfoot -14.3811 0.3384
rtoes 10.8058
lfemur -37.3829 8.68965 -19.6654
ltibia 37.1623
lfoot -13.5104 3.49381
ltoes 4.14281
88
root 0.157292 17.1353 -15.3902 15.734 -1.07048 -2.17813
lowerback 12.1773 -0.200354 0.581548
upperback 8.57526 -0.226076 1.70515
thorax 2.1611 -0.139605 1.46856
lowerneck -13.1667 0.779051 -0.702102
upperneck 22.9873 1.45361 -0.895429
head 9.41775 0.510217 -0.0182796
rclavicle -2.5842e-015 5.1684e-015
rhumerus -26.6102 -3.72023 -84.5314
rradius 36.5776
rwrist 17.3917
rhand -20.1476 -26.194
rfingers 7.12502
rthumb 6.19737 -56.0834
lclavicle -2.5842e-015 5.1684e-015
lhumerus -26.4019 -8.82619 90.3042
lradius 32.6276
lwrist 23.9262
lhand -31.1364 -7.78651
lfingers 7.12502
lthumb -4.41484 22.1475
rfemur -38.0713 -2.96859 20.792
rtibia 37.9655
rfoot -14.46 0.302598
rtoes 10.6939
lfemur -37.8411 8.70481 -19.735
ltibia 37.5336
lfoot -13.5846 3.47487
ltoes 4.1414
89
root 0.160222 17.1182 -15.4129 15.8792 -1.05435 -2.16333
lowerback 12.3784 -0.203458 0.579762
upperback 8.62161 -0.227833 1.70606
thorax 2.10255 -0.140714 1.47178
lowerneck -13.2225 0.780308 -0.689509
upperneck 22.7595 1.45815 -0.928981
head 9.34899 0.511503 -0.0314659
rclavicle -5.06901e-015 -1.97791e-014
rhumerus -26.6344 -3.79282 -84.4053
rradius 36.509
rwrist 17.3854
rhand -20.1141 -26.2049
rfingers 7.12502
rthumb 6.2297 -56.0933
lclavicle -5.06901e-015 -1.97791e-014
lhumerus -26.4014 -8.7321 90.1957
lradius 32.4152
lwrist 23.9101
lhand -31.241 -7.86255
lfingers 7.12502
lthumb -4.51589 22.0693
rfemur -38.5305 -2.98118 20.7821
rtibia 38.3519
rfoot -14.5397 0.26902
rtoes 10.5722
lfemur -38.3063 8.7194 -19.8078
ltibia 37.9127
lfoot -13.6624 3.45529
ltoes 4.13659
90
root 0.163308 17.1006 -15.4357 16.0252 -1.03564 -2.14258
lowerback 12.59 -0.207029 0.579722
upperback 8.66529 -0.229782 1.70371
thorax 2.03565 -0.141727 1.47072
lowerneck -13.2656 0.781161 -0.676299
upperneck 22.5198 1.46131 -0.961574
head 9.27385 0.512484 -0.0446227
rclavicle 6.16232e-015 5.76476e-015
rhumerus -26.6799 -3.86356 -84.2768
rradius 36.4331
rwrist 17.3837
rhand -20.1282 -26.1806
rfingers 7.12502
rthumb 6.21608 -56.0694
lclavicle 6.16232e-015 5.76476e-015
lhumerus -26.4106 -8.65107 90.0877
lradius 32.1884
lwrist 23.8957
lhand -31.3129 -7.99228
lfingers 7.12502
lthumb -4.58531 21.9381
rfemur -38.9982 -2.99934 20.767
rtibia 38.7498
rfoot -14.6209 0.234985
rtoes 10.4361
lfemur -38.7779 8.73406 -19.889
ltibia 38.3014
lfoot -13.7473 3.43468
ltoes 4.12639
91
root 0.166444 17.0821 -15.4593 16.1723 -1.01357 -2.12003
lowerback 12.8097 -0.210774 0.580092
upperback 8.70741 -0.231744 1.70331
thorax 1.96293 -0.142765 1.47152
lowerneck -13.3147 0.782305 -0.662996
upperneck 22.2833 1.46529 -0.995946
head 9.2012 0.51363 -0.0582358
rclavicle -5.76476e-015 -2.28602e-015
rhumerus -26.7435 -3.93377 -84.1385
rradius 36.3559
rwrist 17.3968
rhand -20.1464 -26.1478
rfingers 7.12502
rthumb 6.19847 -56.0372
lclavicle -5.76476e-015 -2.28602e-015
lhumerus -26.4353 -8.57573 89.9877
lradius 31.9635
lwrist 23.876
lhand -31.3542 -8.04188
lfingers 7.12502
lthumb -4.62516 21.8876
rfemur -39.4787 -3.02048 20.7518
rtibia 39.16
rfoot -14.7009 0.193837
rtoes 10.2593
lfemur -39.2617 8.75194 -19.9752
ltibia 38.7025
lfoot -13.8364 3.40954
ltoes 4.11214
92
root 0.169536 17.0625 -15.4833 16.3203 -0.992654 -2.09704
lowerback 13.0324 -0.213262 0.580364
upperback 8.75113 -0.23205 1.70317
thorax 1.89054 -0.142996 1.47252
lowerneck -13.3662 0.783239 -0.648849
upperneck 22.0469 1.46883 -1.03082
head 9.12925 0.514589 -0.0721622
rclavicle -1.59028e-015 3.57812e-015
rhumerus -26.8174 -4.00198 -83.9955
rradius 36.2724
rwrist 17.4223
rhand -20.1806 -26.1219
rfingers 7.12502
rthumb 6.16543 -56.0122
lclavicle -1.59028e-015 3.57812e-015
lhumerus -26.4701 -8.51078 89.8928
lradius 31.7335
lwrist 23.843
lhand -31.4027 -8.10588
lfingers 7.12502
lthumb -4.67199 21.8226
rfemur -39.9712 -3.03641 20.7356
rtibia 39.5827
rfoot -14.7806 0.143572
rtoes 10.0521
lfemur -39.7564 8.77468 -20.0646
ltibia 39.1169
lfoot -13.9313 3.38192
ltoes 4.09853
